<mxfile host="app.diagrams.net" agent="Mozilla/5.0 (Windows NT 10.0; Win64; x64) AppleWebKit/537.36 (KHTML, like Gecko) Chrome/129.0.0.0 Safari/537.36" version="24.7.16">
  <diagram name="Page-1" id="APTniIS82tULk82B3k-t">
    <mxGraphModel dx="989" dy="514" grid="1" gridSize="10" guides="1" tooltips="1" connect="1" arrows="1" fold="1" page="1" pageScale="1" pageWidth="850" pageHeight="1100" math="0" shadow="0">
      <root>
        <mxCell id="0" />
        <mxCell id="1" parent="0" />
        <mxCell id="Ug2A_lS8aaGWNI1Y487F-18" style="edgeStyle=orthogonalEdgeStyle;rounded=0;orthogonalLoop=1;jettySize=auto;html=1;entryX=0.5;entryY=0;entryDx=0;entryDy=0;" edge="1" parent="1" source="Ug2A_lS8aaGWNI1Y487F-2" target="Ug2A_lS8aaGWNI1Y487F-17">
          <mxGeometry relative="1" as="geometry" />
        </mxCell>
        <mxCell id="Ug2A_lS8aaGWNI1Y487F-2" value="Open Index.html" style="rounded=1;whiteSpace=wrap;html=1;fontSize=12;glass=0;strokeWidth=1;shadow=0;" vertex="1" parent="1">
          <mxGeometry x="400" y="190" width="120" height="40" as="geometry" />
        </mxCell>
        <mxCell id="Ug2A_lS8aaGWNI1Y487F-14" style="edgeStyle=orthogonalEdgeStyle;rounded=0;orthogonalLoop=1;jettySize=auto;html=1;entryX=0.5;entryY=0;entryDx=0;entryDy=0;" edge="1" parent="1" source="Ug2A_lS8aaGWNI1Y487F-13" target="Ug2A_lS8aaGWNI1Y487F-2">
          <mxGeometry relative="1" as="geometry" />
        </mxCell>
        <mxCell id="Ug2A_lS8aaGWNI1Y487F-13" value="Open Folder&lt;div&gt;Drum Kit&lt;/div&gt;" style="rounded=1;whiteSpace=wrap;html=1;fontSize=12;glass=0;strokeWidth=1;shadow=0;" vertex="1" parent="1">
          <mxGeometry x="400" y="110" width="120" height="40" as="geometry" />
        </mxCell>
        <mxCell id="Ug2A_lS8aaGWNI1Y487F-21" style="edgeStyle=orthogonalEdgeStyle;rounded=0;orthogonalLoop=1;jettySize=auto;html=1;entryX=0.5;entryY=0;entryDx=0;entryDy=0;exitX=0;exitY=0.5;exitDx=0;exitDy=0;" edge="1" parent="1" source="Ug2A_lS8aaGWNI1Y487F-17" target="Ug2A_lS8aaGWNI1Y487F-19">
          <mxGeometry relative="1" as="geometry" />
        </mxCell>
        <mxCell id="Ug2A_lS8aaGWNI1Y487F-17" value="" style="rounded=0;whiteSpace=wrap;html=1;" vertex="1" parent="1">
          <mxGeometry x="385" y="270" width="150" height="10" as="geometry" />
        </mxCell>
        <mxCell id="Ug2A_lS8aaGWNI1Y487F-24" style="edgeStyle=orthogonalEdgeStyle;rounded=0;orthogonalLoop=1;jettySize=auto;html=1;entryX=0;entryY=0.5;entryDx=0;entryDy=0;" edge="1" parent="1" source="Ug2A_lS8aaGWNI1Y487F-19" target="Ug2A_lS8aaGWNI1Y487F-23">
          <mxGeometry relative="1" as="geometry" />
        </mxCell>
        <mxCell id="Ug2A_lS8aaGWNI1Y487F-19" value="Click Button With&lt;div&gt;Keyboard&lt;/div&gt;" style="rounded=1;whiteSpace=wrap;html=1;fontSize=12;glass=0;strokeWidth=1;shadow=0;" vertex="1" parent="1">
          <mxGeometry x="305" y="330" width="120" height="40" as="geometry" />
        </mxCell>
        <mxCell id="Ug2A_lS8aaGWNI1Y487F-26" style="edgeStyle=orthogonalEdgeStyle;rounded=0;orthogonalLoop=1;jettySize=auto;html=1;entryX=1;entryY=0.5;entryDx=0;entryDy=0;" edge="1" parent="1" source="Ug2A_lS8aaGWNI1Y487F-20" target="Ug2A_lS8aaGWNI1Y487F-23">
          <mxGeometry relative="1" as="geometry">
            <Array as="points">
              <mxPoint x="550" y="415" />
            </Array>
          </mxGeometry>
        </mxCell>
        <mxCell id="Ug2A_lS8aaGWNI1Y487F-20" value="Click Button With&lt;div&gt;Mouse&lt;/div&gt;" style="rounded=1;whiteSpace=wrap;html=1;fontSize=12;glass=0;strokeWidth=1;shadow=0;" vertex="1" parent="1">
          <mxGeometry x="490" y="330" width="120" height="40" as="geometry" />
        </mxCell>
        <mxCell id="Ug2A_lS8aaGWNI1Y487F-22" style="edgeStyle=orthogonalEdgeStyle;rounded=0;orthogonalLoop=1;jettySize=auto;html=1;entryX=0.543;entryY=0.09;entryDx=0;entryDy=0;entryPerimeter=0;exitX=1;exitY=0.5;exitDx=0;exitDy=0;" edge="1" parent="1" source="Ug2A_lS8aaGWNI1Y487F-17" target="Ug2A_lS8aaGWNI1Y487F-20">
          <mxGeometry relative="1" as="geometry" />
        </mxCell>
        <mxCell id="Ug2A_lS8aaGWNI1Y487F-28" style="edgeStyle=orthogonalEdgeStyle;rounded=0;orthogonalLoop=1;jettySize=auto;html=1;entryX=0.5;entryY=0;entryDx=0;entryDy=0;" edge="1" parent="1" source="Ug2A_lS8aaGWNI1Y487F-23" target="Ug2A_lS8aaGWNI1Y487F-27">
          <mxGeometry relative="1" as="geometry" />
        </mxCell>
        <mxCell id="Ug2A_lS8aaGWNI1Y487F-23" value="" style="rounded=0;whiteSpace=wrap;html=1;" vertex="1" parent="1">
          <mxGeometry x="385" y="410" width="150" height="10" as="geometry" />
        </mxCell>
        <mxCell id="Ug2A_lS8aaGWNI1Y487F-27" value="Audio Will Play Based on Which Button is Pressed" style="rounded=1;whiteSpace=wrap;html=1;fontSize=12;glass=0;strokeWidth=1;shadow=0;" vertex="1" parent="1">
          <mxGeometry x="400" y="460" width="120" height="50" as="geometry" />
        </mxCell>
      </root>
    </mxGraphModel>
  </diagram>
</mxfile>
